<svg width="17" height="32" viewBox="0 0 17 32" fill="none" xmlns="http://www.w3.org/2000/svg">
<path d="M16.0084 30.5731V6.92881C16.0083 6.67543 15.9285 6.42848 15.7804 6.2229C15.6323 6.01732 15.4233 5.86351 15.1829 5.78321L3.11543 1.7607C2.93398 1.69989 2.74066 1.68317 2.55146 1.71192C2.36226 1.74066 2.18263 1.81405 2.02743 1.92601C1.87223 2.03797 1.74592 2.18528 1.65896 2.35575C1.572 2.52622 1.52688 2.71494 1.52735 2.90631V30.5731" stroke="#A0A3BD" stroke-width="1.6" stroke-linecap="round" stroke-linejoin="round"/>
<path d="M11.1797 22.9531V24.1599" stroke="#A0A3BD" stroke-width="1.6" stroke-linecap="round" stroke-linejoin="round"/>
<path d="M11.1797 16.9194V18.1262" stroke="#A0A3BD" stroke-width="1.6" stroke-linecap="round" stroke-linejoin="round"/>
<path d="M11.1797 10.8857V12.0925" stroke="#A0A3BD" stroke-width="1.6" stroke-linecap="round" stroke-linejoin="round"/>
<path d="M6.35547 22.9531V24.1599" stroke="#A0A3BD" stroke-width="1.6" stroke-linecap="round" stroke-linejoin="round"/>
<path d="M6.35547 16.9194V18.1262" stroke="#A0A3BD" stroke-width="1.6" stroke-linecap="round" stroke-linejoin="round"/>
<path d="M6.35547 10.8857V12.0925" stroke="#A0A3BD" stroke-width="1.6" stroke-linecap="round" stroke-linejoin="round"/>
</svg>
