<svg width="39" height="33" viewBox="0 0 39 33" fill="none" xmlns="http://www.w3.org/2000/svg">
<rect x="2.39844" y="2.41064" width="34.0457" height="28.1681" fill="white"/>
<path d="M0.96875 28.2546C0.96875 29.4966 1.46213 30.6877 2.34035 31.5659C3.21857 32.4441 4.40969 32.9375 5.65168 32.9375H33.7492C34.9912 32.9375 36.1823 32.4441 37.0606 31.5659C37.9388 30.6877 38.4322 29.4966 38.4322 28.2546V5.62043C38.4322 4.37844 37.9388 3.18732 37.0606 2.3091C36.1823 1.43088 34.9912 0.9375 33.7492 0.9375H5.65168C4.40969 0.9375 3.21857 1.43088 2.34035 2.3091C1.46213 3.18732 0.96875 4.37844 0.96875 5.62043L0.96875 28.2546ZM23.6029 4.83994C23.5956 5.11718 23.5125 5.38712 23.3625 5.62043C23.2323 5.85668 23.0411 6.05368 22.8088 6.19087C22.5765 6.32807 22.3117 6.40044 22.0419 6.40044C21.7722 6.40044 21.5073 6.32807 21.275 6.19087C21.0428 6.05368 20.8516 5.85668 20.7213 5.62043C20.5714 5.38712 20.4882 5.11718 20.4809 4.83994C20.488 4.56266 20.5712 4.29265 20.7213 4.05945C20.8516 3.82319 21.0428 3.6262 21.275 3.489C21.5073 3.35181 21.7722 3.27944 22.0419 3.27944C22.3117 3.27944 22.5765 3.35181 22.8088 3.489C23.0411 3.6262 23.2323 3.82319 23.3625 4.05945C23.5127 4.29265 23.5958 4.56266 23.6029 4.83994ZM29.0663 4.83994C29.059 5.11718 28.9759 5.38712 28.8259 5.62043C28.6957 5.85668 28.5045 6.05368 28.2722 6.19087C28.0399 6.32807 27.7751 6.40044 27.5053 6.40044C27.2356 6.40044 26.9707 6.32807 26.7385 6.19087C26.5062 6.05368 26.315 5.85668 26.1847 5.62043C26.0348 5.38712 25.9517 5.11718 25.9444 4.83994C25.9514 4.56266 26.0346 4.29265 26.1847 4.05945C26.315 3.82319 26.5062 3.6262 26.7385 3.489C26.9707 3.35181 27.2356 3.27944 27.5053 3.27944C27.7751 3.27944 28.0399 3.35181 28.2722 3.489C28.5045 3.6262 28.6957 3.82319 28.8259 4.05945C28.9761 4.29265 29.0593 4.56266 29.0663 4.83994ZM34.5297 4.83994C34.5224 5.11718 34.4393 5.38712 34.2893 5.62043C34.1591 5.85668 33.9679 6.05368 33.7356 6.19087C33.5033 6.32807 33.2385 6.40044 32.9687 6.40044C32.699 6.40044 32.4342 6.32807 32.2019 6.19087C31.9696 6.05368 31.7784 5.85668 31.6482 5.62043C31.4982 5.38712 31.4151 5.11718 31.4078 4.83994C31.4148 4.56266 31.498 4.29265 31.6482 4.05945C31.7805 3.82493 31.9721 3.62934 32.2039 3.49234C32.4357 3.35534 32.6995 3.28175 32.9687 3.27896C33.2687 3.28032 33.5618 3.36805 33.8132 3.53166C34.0645 3.69526 34.2635 3.92782 34.3861 4.2015C34.4791 4.40157 34.5281 4.6193 34.5297 4.83994ZM4.0907 9.13106C4.0907 9.02756 4.13182 8.9283 4.205 8.85512C4.27819 8.78193 4.37745 8.74082 4.48095 8.74082H34.92C35.0235 8.74082 35.1227 8.78193 35.1959 8.85512C35.2691 8.9283 35.3102 9.02756 35.3102 9.13106V28.253C35.3102 28.667 35.1458 29.0641 34.853 29.3568C34.5603 29.6495 34.1632 29.814 33.7492 29.814H5.65168C5.23768 29.814 4.84064 29.6495 4.5479 29.3568C4.25516 29.0641 4.0907 28.667 4.0907 28.253V9.13106Z" fill="#4A3AFF"/>
<path d="M11.5716 23.8951C11.8644 24.1877 12.2613 24.3521 12.6752 24.3521C13.0892 24.3521 13.4861 24.1877 13.7788 23.8951L17.6813 19.9927C17.9739 19.6999 18.1383 19.303 18.1383 18.8891C18.1383 18.4751 17.9739 18.0782 17.6813 17.7854L13.7788 13.883C13.4844 13.5987 13.0901 13.4413 12.6809 13.4449C12.2716 13.4484 11.8801 13.6126 11.5906 13.902C11.3012 14.1914 11.1371 14.583 11.1335 14.9922C11.1299 15.4015 11.2873 15.7958 11.5716 16.0902L14.0942 18.6128C14.1305 18.649 14.1593 18.6921 14.179 18.7395C14.1987 18.7869 14.2088 18.8377 14.2088 18.8891C14.2088 18.9404 14.1987 18.9912 14.179 19.0386C14.1593 19.086 14.1305 19.1291 14.0942 19.1654L11.5716 21.6879C11.279 21.9806 11.1146 22.3776 11.1146 22.7915C11.1146 23.2054 11.279 23.6024 11.5716 23.8951Z" fill="#4A3AFF"/>
<path d="M21.2615 24.3524H27.5054C27.9194 24.3524 28.3164 24.188 28.6092 23.8952C28.9019 23.6025 29.0664 23.2054 29.0664 22.7914C29.0664 22.3774 28.9019 21.9804 28.6092 21.6877C28.3164 21.3949 27.9194 21.2305 27.5054 21.2305H21.2615C20.8475 21.2305 20.4505 21.3949 20.1577 21.6877C19.865 21.9804 19.7005 22.3774 19.7005 22.7914C19.7005 23.2054 19.865 23.6025 20.1577 23.8952C20.4505 24.188 20.8475 24.3524 21.2615 24.3524Z" fill="#4A3AFF"/>
</svg>
