<svg width="35" height="29" viewBox="0 0 35 29" fill="none" xmlns="http://www.w3.org/2000/svg">
<path d="M34.8663 12.8826C34.86 11.7854 34.5159 10.7168 33.8806 9.82212C33.2453 8.92748 32.3498 8.2503 31.3159 7.88274C31.1142 7.80981 30.8979 7.78657 30.6853 7.81499C30.4726 7.84342 30.27 7.92267 30.0945 8.04603C29.919 8.1694 29.7759 8.33324 29.6772 8.52368C29.5784 8.71412 29.5271 8.92555 29.5274 9.14006L29.5461 19.3481C29.5466 19.5621 29.5986 19.7729 29.6977 19.9627C29.7968 20.1524 29.94 20.3155 30.1154 20.4383C30.2908 20.561 30.4931 20.6398 30.7053 20.668C30.9175 20.6961 31.1333 20.6728 31.3346 20.6C32.3706 20.2274 33.266 19.5436 33.8982 18.6423C34.5304 17.741 34.8686 16.6664 34.8663 15.5654V12.8826Z" fill="#4A3AFF"/>
<path d="M28.4025 1.4856C28.4025 1.15557 28.2714 0.839052 28.038 0.605684C27.8046 0.372316 27.4881 0.241211 27.1581 0.241211C26.828 0.241211 26.5115 0.372316 26.2782 0.605684C26.0448 0.839052 25.9137 1.15557 25.9137 1.4856V2.44876L3.32305 9.74212C3.19787 9.78265 3.08876 9.86181 3.0114 9.96824C2.93404 10.0747 2.89241 10.2029 2.89249 10.3345V17.7473C2.89248 17.8797 2.93471 18.0086 3.01304 18.1154C3.09137 18.2221 3.20171 18.3011 3.32802 18.3409L4.94573 18.8486C5.07204 18.8883 5.18238 18.9673 5.26071 19.074C5.33904 19.1808 5.38127 19.3097 5.38126 19.4421V22.6663C5.38948 24.1467 5.98288 25.5637 7.03197 26.6081C8.08106 27.6525 9.50067 28.2396 10.981 28.2412H11.0071C12.4909 28.2327 13.9108 27.6362 14.9555 26.5826C16.0003 25.5289 16.5847 24.1041 16.5808 22.6203V22.4959L25.9137 25.4202V26.3734C25.9137 26.7034 26.0448 27.0199 26.2782 27.2533C26.5115 27.4867 26.828 27.6178 27.1581 27.6178C27.4881 27.6178 27.8046 27.4867 28.038 27.2533C28.2714 27.0199 28.4025 26.7034 28.4025 26.3734V1.4856ZM14.092 22.6265C14.094 23.0351 14.0154 23.44 13.8609 23.8182C13.7064 24.1964 13.4789 24.5404 13.1914 24.8307C12.9039 25.121 12.562 25.3518 12.1853 25.5099C11.8086 25.6681 11.4045 25.7505 10.9959 25.7524H10.981C10.1594 25.7524 9.37109 25.4274 8.78824 24.8483C8.20538 24.2692 7.8753 23.483 7.87004 22.6614V20.6119C7.87004 20.5142 7.89304 20.4178 7.93718 20.3307C7.98132 20.2435 8.04536 20.168 8.12413 20.1102C8.20289 20.0524 8.29416 20.014 8.39054 19.998C8.48692 19.982 8.5857 19.989 8.6789 20.0183L13.6565 21.5788C13.7828 21.6185 13.8931 21.6975 13.9714 21.8042C14.0498 21.911 14.092 22.0399 14.092 22.1723V22.6265Z" fill="#4A3AFF"/>
<path d="M2.89143 9.75988C2.89143 9.42574 2.74652 9.10528 2.48858 8.86901C2.23065 8.63274 1.88081 8.5 1.51603 8.5C1.15125 8.5 0.801409 8.63274 0.543471 8.86901C0.285533 9.10528 0.140625 9.42574 0.140625 9.75988L0.147502 18.579C0.147502 18.7445 0.183078 18.9083 0.252198 19.0612C0.321319 19.214 0.42263 19.3529 0.550348 19.4699C0.678066 19.5869 0.829689 19.6797 0.996561 19.743C1.16343 19.8063 1.34228 19.8389 1.5229 19.8389H1.51603C1.87516 19.839 2.22009 19.7104 2.4771 19.4807C2.73411 19.2509 2.88281 18.9381 2.89143 18.6093V9.75988Z" fill="white"/>
</svg>
