<svg width="41" height="42" viewBox="0 0 41 42" fill="none" xmlns="http://www.w3.org/2000/svg">
<circle cx="20.6368" cy="20.9974" r="8.78843" fill="white"/>
<path fill-rule="evenodd" clip-rule="evenodd" d="M37.8949 24.5086C38.6345 24.9015 39.2051 25.5219 39.6066 26.1422C40.3885 27.4243 40.3251 28.9959 39.5644 30.3813L38.0851 32.8627C37.3032 34.1861 35.845 35.0133 34.3446 35.0133C33.605 35.0133 32.7808 34.8065 32.1046 34.3929C31.5551 34.0414 30.9212 33.9173 30.2449 33.9173C28.1528 33.9173 26.3988 35.6336 26.3354 37.6808C26.3354 40.0588 24.3912 41.9199 21.961 41.9199H19.087C16.6356 41.9199 14.6914 40.0588 14.6914 37.6808C14.6491 35.6336 12.8951 33.9173 10.803 33.9173C10.1057 33.9173 9.47168 34.0414 8.94337 34.3929C8.26713 34.8065 7.42183 35.0133 6.70332 35.0133C5.18178 35.0133 3.72364 34.1861 2.94174 32.8627L1.4836 30.3813C0.701695 29.0372 0.65943 27.4243 1.44133 26.1422C1.77945 25.5219 2.41343 24.9015 3.13193 24.5086C3.72364 24.2191 4.10403 23.7435 4.46328 23.1852C5.51991 21.4069 4.88593 19.0702 3.08967 18.0156C0.99755 16.8369 0.32131 14.2108 1.52586 12.1636L2.94174 9.72354C4.16743 7.67637 6.78785 6.95263 8.9011 8.15198C10.7396 9.14455 13.1276 8.48284 14.2054 6.72517C14.5435 6.14617 14.7337 5.52582 14.6914 4.90546C14.6491 4.099 14.8816 3.3339 15.2831 2.71355C16.065 1.43148 17.4809 0.604345 19.0236 0.562988H22.0033C23.5671 0.562988 24.9829 1.43148 25.7648 2.71355C26.1452 3.3339 26.3988 4.099 26.3354 4.90546C26.2931 5.52582 26.4833 6.14617 26.8215 6.72517C27.8992 8.48284 30.2872 9.14455 32.1469 8.15198C34.239 6.95263 36.8805 7.67637 38.0851 9.72354L39.501 12.1636C40.7266 14.2108 40.0504 16.8369 37.9372 18.0156C36.1409 19.0702 35.5069 21.4069 36.5847 23.1852C36.9228 23.7435 37.3032 24.2191 37.8949 24.5086ZM14.5443 21.2616C14.5443 24.5081 17.2281 27.0929 20.5459 27.0929C23.8637 27.0929 26.4841 24.5081 26.4841 21.2616C26.4841 18.0151 23.8637 15.4096 20.5459 15.4096C17.2281 15.4096 14.5443 18.0151 14.5443 21.2616Z" fill="#4A3AFF"/>
</svg>
