<svg width="17" height="29" viewBox="0 0 17 29" fill="none" xmlns="http://www.w3.org/2000/svg">
<path d="M13.8528 1.57324H3.67884C2.43019 1.57324 1.41797 2.58547 1.41797 3.83411V25.3124C1.41797 26.561 2.43019 27.5732 3.67884 27.5732H13.8528C15.1014 27.5732 16.1136 26.561 16.1136 25.3124V3.83411C16.1136 2.58547 15.1014 1.57324 13.8528 1.57324Z" stroke="#A0A3BD" stroke-width="1.6" stroke-linecap="round" stroke-linejoin="round"/>
<path d="M12.4689 1.57324V3.05447C12.4689 3.44732 12.3128 3.82407 12.035 4.10186C11.7573 4.37964 11.3805 4.5357 10.9877 4.5357H6.54397C6.15113 4.5357 5.77437 4.37964 5.49659 4.10186C5.2188 3.82407 5.06274 3.44732 5.06274 3.05447V1.57324" stroke="#A0A3BD" stroke-width="1.6" stroke-linecap="round" stroke-linejoin="round"/>
</svg>
