<svg width="38" height="33" viewBox="0 0 38 33" fill="none" xmlns="http://www.w3.org/2000/svg">
<rect x="1.71716" y="1.50244" width="34.0457" height="28.1681" fill="white"/>
<rect x="6.88507" y="9.95947" width="23.7094" height="5.66188" rx="0.680278" fill="#4A3AFF"/>
<rect x="6.88507" y="18.3926" width="10.8407" height="7.31969" rx="0.680278" fill="#4A3AFF"/>
<rect x="19.7542" y="18.3926" width="10.8407" height="2.30835" rx="0.680278" fill="#4A3AFF"/>
<rect x="19.7542" y="23.4043" width="10.8407" height="2.30835" rx="0.680278" fill="#4A3AFF"/>
<path d="M0.288513 27.3464C0.288513 28.5884 0.781891 29.7795 1.66011 30.6577C2.53833 31.5359 3.72945 32.0293 4.97144 32.0293H33.069C34.311 32.0293 35.5021 31.5359 36.3803 30.6577C37.2585 29.7795 37.7519 28.5884 37.7519 27.3464V4.71222C37.7519 3.47023 37.2585 2.27911 36.3803 1.40089C35.5021 0.522675 34.311 0.0292969 33.069 0.0292969H4.97144C3.72945 0.0292969 2.53833 0.522675 1.66011 1.40089C0.781891 2.27911 0.288513 3.47023 0.288513 4.71222L0.288513 27.3464ZM22.9227 3.93174C22.9154 4.20898 22.8322 4.47892 22.6823 4.71222C22.552 4.94848 22.3608 5.14547 22.1286 5.28267C21.8963 5.41987 21.6315 5.49224 21.3617 5.49224C21.0919 5.49224 20.8271 5.41987 20.5948 5.28267C20.3625 5.14547 20.1713 4.94848 20.0411 4.71222C19.8911 4.47892 19.808 4.20898 19.8007 3.93174C19.8078 3.65445 19.8909 3.38445 20.0411 3.15125C20.1713 2.91499 20.3625 2.718 20.5948 2.5808C20.8271 2.44361 21.0919 2.37124 21.3617 2.37124C21.6315 2.37124 21.8963 2.44361 22.1286 2.5808C22.3608 2.718 22.552 2.91499 22.6823 3.15125C22.8324 3.38445 22.9156 3.65445 22.9227 3.93174ZM28.3861 3.93174C28.3788 4.20898 28.2956 4.47892 28.1457 4.71222C28.0155 4.94848 27.8242 5.14547 27.592 5.28267C27.3597 5.41987 27.0949 5.49224 26.8251 5.49224C26.5553 5.49224 26.2905 5.41987 26.0582 5.28267C25.8259 5.14547 25.6347 4.94848 25.5045 4.71222C25.3546 4.47892 25.2714 4.20898 25.2641 3.93174C25.2712 3.65445 25.3543 3.38445 25.5045 3.15125C25.6347 2.91499 25.8259 2.718 26.0582 2.5808C26.2905 2.44361 26.5553 2.37124 26.8251 2.37124C27.0949 2.37124 27.3597 2.44361 27.592 2.5808C27.8242 2.718 28.0155 2.91499 28.1457 3.15125C28.2959 3.38445 28.379 3.65445 28.3861 3.93174ZM33.8495 3.93174C33.8422 4.20898 33.7591 4.47892 33.6091 4.71222C33.4789 4.94848 33.2877 5.14547 33.0554 5.28267C32.8231 5.41987 32.5583 5.49224 32.2885 5.49224C32.0187 5.49224 31.7539 5.41987 31.5216 5.28267C31.2894 5.14547 31.0981 4.94848 30.9679 4.71222C30.818 4.47892 30.7348 4.20898 30.7275 3.93174C30.7346 3.65445 30.8177 3.38445 30.9679 3.15125C31.1002 2.91672 31.2919 2.72114 31.5237 2.58414C31.7555 2.44714 32.0193 2.37355 32.2885 2.37076C32.5884 2.37212 32.8816 2.45985 33.1329 2.62346C33.3843 2.78706 33.5832 3.01961 33.7059 3.2933C33.7989 3.49337 33.8479 3.71109 33.8495 3.93174ZM3.41046 8.22286C3.41046 8.11936 3.45158 8.0201 3.52476 7.94691C3.59795 7.87373 3.69721 7.83261 3.80071 7.83261H34.2397C34.3432 7.83261 34.4425 7.87373 34.5157 7.94691C34.5889 8.0201 34.63 8.11936 34.63 8.22286V27.3448C34.63 27.7588 34.4655 28.1558 34.1728 28.4486C33.88 28.7413 33.483 28.9058 33.069 28.9058H4.97144C4.55744 28.9058 4.1604 28.7413 3.86766 28.4486C3.57492 28.1558 3.41046 27.7588 3.41046 27.3448V8.22286Z" fill="#4A3AFF"/>
</svg>
